<svg width="18" height="17" viewBox="0 0 18 17" fill="none" xmlns="http://www.w3.org/2000/svg">
<path d="M17.371 10.1738V16.5956H13.6472V10.606C13.6472 9.09949 13.1101 8.07363 11.7611 8.07363C10.7312 8.07363 10.1213 8.76427 9.85072 9.43472C9.75379 9.67301 9.72551 10.0082 9.72551 10.3435V16.5996H6.00171C6.00171 16.5996 6.05017 6.45002 6.00171 5.39992H9.72551V6.98718C9.71744 6.9993 9.70936 7.01142 9.70128 7.02353H9.72551V6.98718C10.2223 6.22384 11.1028 5.1374 13.0818 5.1374C15.5334 5.13336 17.371 6.73678 17.371 10.1738ZM2.10827 0C0.832 0 0 0.836039 0 1.9346C0 3.00893 0.807767 3.8692 2.05981 3.8692H2.08404C3.38454 3.8692 4.19231 3.00893 4.19231 1.9346C4.16404 0.836039 3.3805 0 2.10827 0ZM0.222136 16.5996H3.94594V5.39588H0.222136V16.5996Z" fill="white"/>
</svg>
