<svg width="16" height="12" viewBox="0 0 16 12" fill="none" xmlns="http://www.w3.org/2000/svg">
<path fill-rule="evenodd" clip-rule="evenodd" d="M15.9997 1.42103C15.4114 1.66228 14.7785 1.8247 14.1146 1.89824C14.7923 1.52314 15.3125 0.929536 15.5574 0.222732C14.9228 0.569792 14.2213 0.822142 13.4732 0.957578C12.8746 0.368752 12.0219 0.00105596 11.0773 0.00105596C9.26436 0.00105596 7.79502 1.35701 7.79502 3.02987C7.79502 3.26794 7.82428 3.49861 7.88016 3.72028C5.15272 3.59437 2.73444 2.38814 1.11567 0.555498C0.83321 1.00255 0.67175 1.52314 0.67175 2.07811C0.67175 3.12933 1.25137 4.05676 2.13157 4.59957C1.59315 4.58369 1.08735 4.4472 0.645074 4.22077C0.645074 4.23347 0.645074 4.24616 0.645074 4.25886C0.645074 5.72644 1.77605 6.95014 3.2781 7.22948C3.00232 7.29826 2.71308 7.33529 2.41336 7.33529C2.20204 7.33529 1.99596 7.31624 1.79589 7.28079C2.2132 8.48385 3.4258 9.35997 4.86159 9.3843C3.73832 10.1969 2.32305 10.681 0.78506 10.681C0.520604 10.681 0.25865 10.6667 0.00184405 10.6392C1.4541 11.4984 3.17929 11.9999 5.03333 11.9999C11.0704 11.9999 14.3715 7.38396 14.3715 3.38116C14.3715 3.24995 14.368 3.11981 14.3621 2.98966C15.0034 2.56272 15.5599 2.02891 15.9997 1.42208V1.42103Z" fill="#F2F2F2"/>
</svg>
