<svg width="22" height="22" viewBox="0 0 22 22" fill="none" xmlns="http://www.w3.org/2000/svg">
<path fill-rule="evenodd" clip-rule="evenodd" d="M18.4582 3.15495C16.4271 1.12151 13.726 0.00117906 10.8482 0C4.91862 0 0.0925345 4.82569 0.0902201 10.7571C0.0893904 12.6532 0.584772 14.5039 1.52623 16.1353L0 21.71L5.70296 20.214C7.27425 21.0711 9.04342 21.5228 10.8439 21.5234H10.8483C10.8487 21.5234 10.848 21.5234 10.8484 21.5234C16.7774 21.5234 21.6038 16.6973 21.6063 10.7657C21.6073 7.89116 20.4893 5.18831 18.4582 3.15495ZM10.8483 19.7066H10.8446C9.24023 19.706 7.66653 19.2749 6.29367 18.4602L5.9672 18.2665L2.58298 19.1542L3.48632 15.8546L3.27369 15.5163C2.37865 14.0927 1.90593 12.4472 1.90663 10.7577C1.90855 5.82776 5.91982 1.81694 10.8519 1.81694C13.2401 1.81768 15.4852 2.74901 17.1734 4.43913C18.8616 6.12925 19.7908 8.3758 19.7898 10.765C19.7878 15.6953 15.7767 19.7066 10.8483 19.7066Z" fill="white"/>
<path fill-rule="evenodd" clip-rule="evenodd" d="M15.7536 13.0102C15.4848 12.8757 14.1632 12.2255 13.9168 12.1357C13.6704 12.046 13.4912 12.0012 13.312 12.2702C13.1329 12.5393 12.6177 13.1448 12.4609 13.3242C12.3041 13.5035 12.1472 13.5261 11.8785 13.3915C11.6097 13.2569 10.7436 12.9731 9.71689 12.0573C8.91775 11.3445 8.37831 10.4643 8.22145 10.1951C8.06468 9.9261 8.20477 9.78064 8.33935 9.64657C8.46027 9.52609 8.60818 9.33264 8.74259 9.17565C8.87696 9.01874 8.92177 8.90651 9.01138 8.72725C9.10098 8.54782 9.05622 8.39083 8.98897 8.25633C8.92177 8.12178 8.3842 6.7987 8.16022 6.26039C7.94197 5.73632 7.72039 5.80732 7.55536 5.79898C7.39881 5.79117 7.21937 5.78955 7.0402 5.78955C6.86103 5.78955 6.56975 5.85684 6.32342 6.12589C6.07704 6.39502 5.38257 7.04538 5.38257 8.36834C5.38257 9.69146 6.34578 10.9697 6.48019 11.149C6.61456 11.3285 8.37564 14.0435 11.0721 15.2078C11.7134 15.4848 12.2141 15.6502 12.6045 15.774C13.2484 15.9787 13.8344 15.9498 14.2976 15.8805C14.8141 15.8034 15.888 15.2303 16.112 14.6025C16.336 13.9745 16.336 13.4363 16.2687 13.3242C16.2016 13.2121 16.0223 13.1448 15.7536 13.0102Z" fill="white"/>
</svg>
