<svg width="20" height="15" viewBox="0 0 20 15" fill="none" xmlns="http://www.w3.org/2000/svg">
<path d="M19.0054 13.8813C18.2446 14.73 17.3924 14.735 17.0016 14.7831C14.2026 15 10.0044 15 10.0044 15H9.99503C9.99503 15 5.79677 15 2.99842 14.7831C2.6077 14.735 1.75618 14.73 0.99468 13.8813C0.395752 13.2338 0.200063 11.7631 0.200063 11.7631C0.200063 11.7631 0 10.0375 0 8.31185V6.69438C0 4.96751 0.200063 3.24249 0.200063 3.24249C0.200063 3.24249 0.395156 1.7725 0.99468 1.12628C1.75618 0.277549 2.75457 0.303177 3.19974 0.214436C4.79964 0.0505962 10 0 10 0C10 0 14.2026 0.00748444 17.0016 0.221853C17.3923 0.271852 18.2445 0.276819 19.0053 1.12562C19.6042 1.77184 19.7999 3.24183 19.7999 3.24183C19.7999 3.24183 20 4.96744 20 6.69372V8.31125C20 10.0375 19.7999 11.7631 19.7999 11.7631C19.7999 11.7631 19.605 13.2337 19.0054 13.8813ZM7.50234 3.74997V11.25L13.7543 7.49993L7.50234 3.74997Z" fill="#F2F2F2"/>
</svg>
